/* XPM */
static const char *clipboard_32x32_xpm[] = {
/* columns rows colors chars-per-pixel */
"32 32 88 1",
"- c Black",
"Z c #E8E8E8",
"4 c #3C3C3C",
"= c #969696",
"7 c #171717",
"Y c #E1E1E1",
"t c #353535",
"  c None",
"^ c #535353",
"` c #626262",
"& c #010101",
"% c #1F1F1F",
"Q c #E9E9E9",
"M c #F8F8F8",
"H c #3D3D3D",
"i c #6A6A6A",
"$ c #979797",
"J c #A6A6A6",
"3 c #B5B5B5",
"X c #C4C4C4",
"2 c #090909",
"q c #D3D3D3",
"s c #181818",
"B c #F1F1F1",
"( c #454545",
"k c #545454",
"_ c #020202",
"@ c #CCCCCC",
"w c #DBDBDB",
"' c #EAEAEA",
"x c #2F2F2F",
"N c #F9F9F9",
"u c #3E3E3E",
"! c #A7A7A7",
"d c #191919",
"U c #E3E3E3",
"n c #F2F2F2",
"y c #030303",
"o c #121212",
"h c #212121",
"R c #EBEBEB",
"D c #303030",
"b c #FAFAFA",
"P c #5D5D5D",
"6 c #1A1A1A",
"A c #F3F3F3",
"] c #383838",
"~ c #A1A1A1",
"1 c #040404",
"S c #ECECEC",
"F c #313131",
". c #FBFBFB",
"m c #4F4F4F",
"V c #5E5E5E",
"e c #B8B8B8",
"j c #1B1B1B",
"T c #E5E5E5",
"/ c #F4F4F4",
"8 c #050505",
": c #EDEDED",
"v c #323232",
"* c #FCFCFC",
"f c #505050",
"C c #5F5F5F",
"9 c #7D7D7D",
"I c #B9B9B9",
"E c #0D0D0D",
"0 c #D7D7D7",
"5 c #1C1C1C",
"l c #E6E6E6",
"; c #F5F5F5",
"L c #676767",
"r c #A3A3A3",
"< c #060606",
"c c #333333",
"+ c #FDFDFD",
"g c #515151",
"W c #0E0E0E",
") c #D8D8D8",
"a c #F6F6F6",
"z c #595959",
"p c #686868",
"K c #868686",
", c #070707",
"> c #161616",
"O c #FEFEFE",
"G c #525252",
"# c #9D9D9D",
/* pixels */
"          .   XooX   .          ",
"       OO+ @#$%&&%$#@ +OO       ",
"     *O   =----------=   O*     ",
"    +  ;;:>-,<1221<,->:;;  +    ",
"   + 345678&90qwwq09&876543 +   ",
"  * e-----<-r      r-<-----e *  ",
" O+Ot-<----yuipiipiuy----<-tO+  ",
" O as&&dfgh----------hgfd&&sa O ",
"    j--k  lzxcvvvvcvzl  k--6; O ",
".b.nd--m*M            M*m--d; O ",
" O ;d--f *bN........Nb* f--d; O ",
" O ;d--f +            + f--d; O ",
" O ;d--m BpVCVVVVVVCVpB m--d; O ",
" O ;d--m Z------------Z m--d; O ",
"+*+Ad--m+S4xDDDDDDDFFu: m--d; O ",
"   *6--G              * f--d; O ",
" O ;d--f *            * f--d; O ",
" O ;d--m :HDFDDDcDJ . * f--d; O ",
" O ;d--m Z--------K . * f--d; O ",
" O ;d--m BLPPPPPCPI+.O* f--d; O ",
" O ;d--f O            * f--d; O ",
" O ;d--f bUYYYYYYYUTTlb f--d; O ",
" O ;d--m R5EWEEEEEEWE5R m--d; O ",
" O ;d--m Q------------Q m--d; O ",
" O ;d--f ;!~~~~~~~~~~!; f--d; O ",
" O ;d--m+.            .+m--d; O ",
" O ;d--^                ^--d; O ",
" O /d--(w)wwwwwwwwwwww)w(--d/ O ",
" O Nj_&&________________&&_jN O ",
"  * `-y------------------y-` *  ",
"  OO']__&&&&&&&&&&&&&&&&__]'OO  ",
"   + A(__--------------__(A +   "
};

