/* XPM */
static const char *clipboard_64x64_xpm[] = {
/* columns rows colors chars-per-pixel */
"64 64 89 1",
"& c Black",
"= c #CACACA",
"2 c #0F0F0F",
"F c #D9D9D9",
"5 c #1E1E1E",
"* c #E8E8E8",
"z c #F7F7F7",
"R c #A5A5A5",
"r c #B4B4B4",
"- c #C3C3C3",
"q c #080808",
"% c #171717",
"< c #E1E1E1",
"G c #F0F0F0",
"  c None",
"# c #010101",
"m c #CBCBCB",
"~ c #101010",
"B c #DADADA",
"W c #1F1F1F",
"f c #E9E9E9",
"Z c #F8F8F8",
"j c #3D3D3D",
"c c #4C4C4C",
"[ c #979797",
"H c #A6A6A6",
"e c #B5B5B5",
"; c #C4C4C4",
"4 c #E2E2E2",
"0 c #F1F1F1",
", c #020202",
"J c #DBDBDB",
"Y c #202020",
"u c #2F2F2F",
"O c #F9F9F9",
"I c #6B6B6B",
"Q c #C5C5C5",
"] c #0A0A0A",
"( c #282828",
"l c #464646",
"9 c #030303",
"w c #CDCDCD",
"T c #212121",
"o c #FAFAFA",
"p c #4E4E4E",
"a c #8A8A8A",
"C c #A8A8A8",
"$ c #B7B7B7",
"! c #C6C6C6",
"> c #0B0B0B",
"+ c #E4E4E4",
"h c #474747",
"n c #838383",
"M c #040404",
"E c #CECECE",
"' c #131313",
"^ c #ECECEC",
"i c #313131",
"X c #FBFBFB",
"g c #404040",
"K c #9A9A9A",
"d c #484848",
"` c #666666",
"A c #B1B1B1",
") c #C0C0C0",
"P c #050505",
"/ c #DEDEDE",
"_ c #EDEDED",
"6 c #FCFCFC",
"x c #8C8C8C",
"L c #C8C8C8",
"y c #0D0D0D",
"7 c #585858",
"b c #858585",
": c #B2B2B2",
"k c #060606",
". c #FDFDFD",
"t c #8D8D8D",
"U c #0E0E0E",
"V c #D8D8D8",
"D c #1D1D1D",
"v c #F6F6F6",
"@ c #4A4A4A",
"1 c #595959",
"8 c #070707",
"s c #252525",
"3 c #FEFEFE",
"S c #ACACAC",
"N c #BBBBBB",
/* pixels */
"                       .XoXO +@##@+ OXoX.                       ",
"                     ..     $%&##&%$     ..                     ",
"                    .  *=-;:>&,&&,&>:;-=*  .                    ",
"                   . <12&&&&&#&&&&#&&&&&21< .                   ",
"                  .345&&#,,,#&&&&&&#,,,#&&543.                  ",
"            3.6666O37&8##999,,,##,,,999##8&73O6666.3            ",
"          36       0q,#&&&&&&&&&&&&&&&&&&#,q0       63          ",
"         3  Oweer:rt&##&yuuuuiuppuiuuuuy&##&tr:reewO  3         ",
"        3 6as&&&&&&&&&9&d              d&9&&&&&&&&&sa6 3        ",
"       .3fg&&#99999,&&9&h 6          6 h&9&&,99999#&&gf3.       ",
"      3.oj&k,&&&&&&&&&9&lozoooooooooozol&9&&&&&&&&&,k&jo.3      ",
"      6 x&k&&&&&&&&&&&9&c              c&9&&&&&&&&&&&k&x 6      ",
"     33v5,,&&&&&####&&,&sbnbbbbbbbbbbnbs&,&&####&&&&&,,5v33     ",
"     . m&#&&&&&&&&&&##&&&&&&&&&&&&&&&&&&&&##&&&&&&&&&&#&m .     ",
"     6 :&9&&&&&,,,,,&&,&#MMMMMMMMMMMMMM#&,&&,,,,,&&&&&9&: 6     ",
"33333X3r&9&&#&,NBVVBC&&999999999999999999&&CBVVBN,&#&&9&r 6     ",
"XXXXXZXA&9&&#&,4     SD&&&&&&&&&&&&&&&&&&DS     4,&#&&9&r 6     ",
"     6 r&9&&#&,F.X..6 GHxtxxxxxxxxxxxxtxHG 6..X.F,&#&&9&r 6     ",
"     6 r&9&&#&,J .   6                    6   . J,&#&&9&r 6     ",
"     6 r&9&&#&,J .    3XXXXXXXXXXXXXXXXXX3    . J,&#&&9&r 6     ",
"     6 r&9&&#&,J .                            . J,&#&&9&r 6     ",
"     6 r&9&&#&,J .                            . J,&#&&9&r 6     ",
"     6 r&9&&#&,J . 3XXXXXXXXXXXXXXXXXXXXXXXX3 . J,&#&&9&r 6     ",
"     6 r&9&&#&,J .                            . J,&#&&9&r 6     ",
"     6 r&9&&#&,J 6 fKKKKKKKKKKKKKKKKKKKKKKKKf 6 J,&#&&9&r 6     ",
"     6 r&9&&#&,J o -&&&&&&&&&&&&&&&&&&&&&&&&- o J,&#&&9&r 6     ",
"     6 r&9&&#&,J o LMPMMMMMMMMMMMMMMMMMMMMPML o J,&#&&9&r 6     ",
"     6 r&9&&#&,J o LMPMMMMMMMMMMMMMMMMMMMMPML o J,&#&&9&r 6     ",
"     6 r&9&&#&,J o -&&&&&&&&&&&&&&&&&&&&&&&&- o J,&#&&9&r 6     ",
"     6 r&9&&#&,J X B777777777777777777777777B X J,&#&&9&r 6     ",
"     6 r&9&&#&,J .                            . J,&#&&9&r 6     ",
".....o.:&9&&#&,F.X.6OOOOOOOOOXXXXXXXXXXXXX6X3 . J,&#&&9&r 6     ",
".    6 r&9&&#&,J . 3XXXXXXXXXXXXXXXX6         . J,&#&&9&r 6     ",
"     6 r&9&&#&,J .                            . J,&#&&9&r 6     ",
"     6 r&9&&#&,J X B7777777777777717Io 3      . J,&#&&9&r 6     ",
"     6 r&9&&#&,J o -&&&&&&&&&&&&&&&&UZ 3      . J,&#&&9&r 6     ",
"     6 r&9&&#&,J o LMPMMMMMMMMMMMMkMYZ 3      . J,&#&&9&r 6     ",
"     6 r&9&&#&,J o LMPMMMMMMMMMMMMkMTZ 3      . J,&#&&9&r 6     ",
"     6 r&9&&#&,J o -&&&&&&&&&&&&&&&&yZ 3      . J,&#&&9&r 6     ",
"     6 r&9&&#&,J 6 fKKKKKKKKKKKKKKKKR6        . J,&#&&9&r 6     ",
"     6 r&9&&#&,J .                            . J,&#&&9&r 6     ",
"     6 r&9&&#&,J . 3ooooooooooooooooX3333333  . J,&#&&9&r 6     ",
"     6 r&9&&#&,J .                            . J,&#&&9&r 6     ",
"     6 r&9&&#&,J . 3OOOOOOOOOOOOOOOOOOOOOOOO3 . J,&#&&9&r 6     ",
"     6 r&9&&#&,J o EWYWWWWWWWWWWWWWWWWWWWWYWE o J,&#&&9&r 6     ",
"     6 r&9&&#&,J o Q&&&&&&&&&&&&&&&&&&&&&&&&Q o J,&#&&9&r 6     ",
"     6 r&9&&#&,J o L9M99999999999999999999M9L o J,&#&&9&r 6     ",
"X    6 r&9&&#&,J o !&&&&&&&&&&&&&&&&&&&&&&&&! o J,&#&&9&r 6     ",
"     6 r&9&&#&,J o =2~22222222222222222222~2= o J,&#&&9&r 6     ",
"     6 r&9&&#&,J . X^^^^^^^^^^^^^^^^^^^^^^^^X . J,&#&&9&r 6     ",
"     6 r&9&&#&,J .                            . J,&#&&9&r 6     ",
"     6 r&9&&#&,J .  333333333333333333333333  . J,&#&&9&r 6     ",
"     6 r&9&&#&,J .                            . J,&#&&9&r 6     ",
"     6 r&9&&#&,J .                            . J,&#&&9&r 6     ",
"     6 r&9&&#&,J .                            . J,&#&&9&r 6     ",
"     6 e&9&&#&,/                                /,&#&&9&e 6     ",
"     6 :#9&&&&&(uuuuuuuuuuuuuuuuuuuuuuuuuuuuuuuu(&&&&&9#: 6     ",
"     6 )&,&&&&&&&&&&&&&&&&&&&&&&&&&&&&&&&&&&&&&&&&&&&&,&) 6     ",
"     3 _2##&&&&,,,,,,,,,,,,,,,,,,,,,,,,,,,,,,,,,,&&&&##2_ 3     ",
"      6 `&P&&&&&&&&&&&&&&&&&&&&&&&&&&&&&&&&&&&&&&&&&&P&` 6      ",
"      .3*%&P&&&&&&&&&&&&&&&&&&&&&&&&&&&&&&&&&&&&&&&&P&%*3.      ",
"       . -'&&&&&&&&&&&&&&&&&&&&&&&&&&&&&&&&&&&&&&&&&&'- .       ",
"        6 Vd]#&&&&&&&&&&&&&&&&&&&&&&&&&&&&&&&&&&&&#]dV 6        ",
"         o  [W,#&&&&&&&&&&&&&&&&&&&&&&&&&&&&&&&&#,W[  o         "
};

