/* XPM */
static const char *clipboard_16x16_xpm[] = {
/* columns rows colors chars-per-pixel */
"16 16 79 1",
"$ c Black",
"L c #0F0F0F",
"t c #F7F7F7",
"5 c #3C3C3C",
"< c #4B4B4B",
"r c #080808",
"j c #171717",
"G c #E1E1E1",
"d c #262626",
"O c #F0F0F0",
"y c #353535",
"  c None",
"w c #626262",
"J c #DADADA",
"W c #E9E9E9",
"% c #F8F8F8",
"3 c #4C4C4C",
"T c #C4C4C4",
"8 c #090909",
"H c #E2E2E2",
"s c #272727",
"P c #F1F1F1",
"e c #363636",
"p c #454545",
"- c #909090",
"# c #111111",
"A c #DBDBDB",
"X c #F9F9F9",
"R c #C5C5C5",
"u c #0A0A0A",
"; c #D4D4D4",
"f c #282828",
"D c #F2F2F2",
"> c #373737",
"z c #828282",
"M c #919191",
"k c #030303",
"I c #303030",
"* c #4E4E4E",
"l c #6C6C6C",
"Y c #B7B7B7",
"& c #D5D5D5",
"v c #747474",
"N c #929292",
"b c #040404",
"V c #ECECEC",
"o c #FBFBFB",
"+ c #404040",
", c #D6D6D6",
"n c #393939",
"6 c #484848",
"q c #666666",
": c #939393",
"! c #050505",
"Z c #323232",
". c #FCFCFC",
"C c #505050",
"F c #E6E6E6",
"K c #F5F5F5",
"g c #494949",
"4 c #585858",
"x c #858585",
"U c #060606",
"Q c #242424",
"9 c #EEEEEE",
"7 c #333333",
"h c #6F6F6F",
"2 c #0E0E0E",
"1 c #1D1D1D",
"B c #F6F6F6",
"E c #686868",
"c c #868686",
"m c #A4A4A4",
"a c #252525",
"i c #EFEFEF",
"= c #343434",
"S c #FEFEFE",
"@ c #707070",
"0 c #BBBBBB",
/* pixels */
"  .Xo O++O oX.  ",
"     @#$$#@     ",
"%o&*=$-;;:$>*, o",
"  <$123445$2$6 X",
". 7890qwwq0987 o",
". ert      tre o",
". yuipasdfgiuy o",
"h@jklzxxcv@lbj o",
"  nu mMNMB  8n o",
"%o=8VCZ=ZA 9r= o",
"oSyrDFGHH,JDry o",
"  euK7L###yKue o",
". e8 BPDDPB 8e o",
". IUYTTRRTTYUI o",
"X E$$$$$$$$$$E X",
"oSWQ!UbbbbU!QWS."
};

